version = 1
nColumns = 19
nRows = 27
inDegrees = yes
endheader 
time	r_ground_force_vx	r_ground_force_vy	r_ground_force_vz	r_ground_force_px	r_ground_force_py	r_ground_force_pz	l_ground_force_vx	l_ground_force_vy	l_ground_force_vz	l_ground_force_px	l_ground_force_py	l_ground_force_pz	r_ground_torque_x	r_ground_torque_y	r_ground_torque_z	l_ground_torque_x	l_ground_torque_y	l_ground_torque_z	
          0.24200909	          0.00000000	          0.00000000	          0.00000000	          0.00000000	          0.00000000	          0.00000000	          0.00000000	          0.00000000	          0.00000000	          0.00000000	          0.00000000	          0.00000000	          0.00000000	          0.00000000	          0.00000000	          0.00000000	          0.00000000	          0.00000000	
          0.24275957	          0.00000000	          0.00000000	          0.00000000	          0.00000000	          0.00000000	          0.00000000	          0.00000000	          0.00000000	          0.00000000	          0.00000000	          0.00000000	          0.00000000	          0.00000000	          0.00000000	          0.00000000	          0.00000000	          0.00000000	          0.00000000	
          0.24513076	          0.00000000	          0.00000000	          0.00000000	          0.00000000	          0.00000000	          0.00000000	          0.00000000	          0.00000000	          0.00000000	          0.00000000	          0.00000000	          0.00000000	          0.00000000	          0.00000000	          0.00000000	          0.00000000	          0.00000000	          0.00000000	
          0.24684928	          0.00000000	          0.00000000	          0.00000000	          0.00000000	          0.00000000	          0.00000000	          0.00000000	          0.00000000	          0.00000000	          0.00000000	          0.00000000	          0.00000000	          0.00000000	          0.00000000	          0.00000000	          0.00000000	          0.00000000	          0.00000000	
          0.24759975	          0.00000000	          0.00000000	          0.00000000	          0.00000000	          0.00000000	          0.00000000	          0.00000000	          0.00000000	          0.00000000	          0.00000000	          0.00000000	          0.00000000	          0.00000000	          0.00000000	          0.00000000	          0.00000000	          0.00000000	          0.00000000	
          0.24997095	          0.00000000	          0.00000000	          0.00000000	          0.00000000	          0.00000000	          0.00000000	          0.00000000	          0.00000000	          0.00000000	          0.00000000	          0.00000000	          0.00000000	          0.00000000	          0.00000000	          0.00000000	          0.00000000	          0.00000000	          0.00000000	
          0.25168946	          0.00000000	          0.00000000	          0.00000000	          0.00000000	          0.00000000	          0.00000000	          0.00000000	          0.00000000	          0.00000000	          0.00000000	          0.00000000	          0.00000000	          0.00000000	          0.00000000	          0.00000000	          0.00000000	          0.00000000	          0.00000000	
          0.25243993	          0.00000000	          0.00000000	          0.00000000	          0.00000000	          0.00000000	          0.00000000	          0.00000000	          0.00000000	          0.00000000	          0.00000000	          0.00000000	          0.00000000	          0.00000000	          0.00000000	          0.00000000	          0.00000000	          0.00000000	          0.00000000	
          0.25481113	          0.00000000	          0.00000000	          0.00000000	          0.00000000	          0.00000000	          0.00000000	        -62.58425970	         35.98207472	         14.77767269	          0.19275737	          0.00000000	         -0.01705721	          0.00000000	          0.00000000	          0.00000000	          0.00000000	          0.00389084	          0.00000000	
          0.25652964	          0.00000000	          0.00000000	          0.00000000	          0.00000000	          0.00000000	          0.00000000	       -126.42390764	         76.44087622	         29.22057808	          0.20803992	          0.00000000	         -0.01721545	          0.00000000	          0.00000000	          0.00000000	          0.00000000	          0.02206097	          0.00000000	
          0.25728011	          0.00000000	          0.00000000	          0.00000000	          0.00000000	          0.00000000	          0.00000000	       -201.99236487	        124.98790007	         47.29321542	          0.22026034	          0.00000000	         -0.01728593	          0.00000000	          0.00000000	          0.00000000	          0.00000000	         -0.01535737	          0.00000000	
          0.25965131	          0.00000000	          0.00000000	          0.00000000	          0.00000000	          0.00000000	          0.00000000	       -868.56546911	        716.51091310	         81.04695437	          0.29563204	          0.00000000	         -0.01701489	          0.00000000	          0.00000000	          0.00000000	          0.00000000	          3.57314785	          0.00000000	
          0.26136982	          0.00000000	          0.00000000	          0.00000000	          0.00000000	          0.00000000	          0.00000000	      -1963.21557442	       2562.76759602	        105.35119800	          0.32693183	          0.00000000	         -0.01569088	          0.00000000	          0.00000000	          0.00000000	          0.00000000	         41.83822083	          0.00000000	
          0.26212030	          0.00000000	          0.00000000	          0.00000000	          0.00000000	          0.00000000	          0.00000000	      -2065.44080891	       3469.12179036	        341.82815727	          0.33095204	          0.00000000	         -0.01351648	          0.00000000	          0.00000000	          0.00000000	          0.00000000	         99.52079804	          0.00000000	
          0.26449149	          0.00000000	          0.00000000	          0.00000000	          0.00000000	          0.00000000	          0.00000000	      -1237.79910311	       4466.84693400	        392.85420596	          0.29634971	          0.00000000	         -0.01353321	          0.00000000	          0.00000000	          0.00000000	          0.00000000	        128.50897968	          0.00000000	
          0.26621000	          0.00000000	          0.00000000	          0.00000000	          0.00000000	          0.00000000	          0.00000000	       -436.37935815	       4589.89176675	       -154.24906704	          0.27088034	          0.00000000	         -0.01507387	          0.00000000	          0.00000000	          0.00000000	          0.00000000	         51.02547444	          0.00000000	
          0.26696048	          0.00000000	          0.00000000	          0.00000000	          0.00000000	          0.00000000	          0.00000000	       -341.58760767	       4698.86085044	        -58.87785686	          0.27033934	          0.00000000	         -0.01497808	          0.00000000	          0.00000000	          0.00000000	          0.00000000	         60.05869837	          0.00000000	
          0.26933167	          0.00000000	          0.00000000	          0.00000000	          0.00000000	          0.00000000	          0.00000000	       -295.14408239	       4613.94682524	         55.01149007	          0.27583875	          0.00000000	         -0.01563947	          0.00000000	          0.00000000	          0.00000000	          0.00000000	         53.70732655	          0.00000000	
          0.27105018	          0.00000000	          0.00000000	          0.00000000	          0.00000000	          0.00000000	          0.00000000	       -319.75044277	       4338.19726502	        160.28282375	          0.28274264	          0.00000000	         -0.01631568	          0.00000000	          0.00000000	          0.00000000	          0.00000000	         41.11437759	          0.00000000	
          0.27180066	          0.00000000	          0.00000000	          0.00000000	          0.00000000	          0.00000000	          0.00000000	       -312.25884803	       4211.94561099	        217.46293412	          0.28561870	          0.00000000	         -0.01654383	          0.00000000	          0.00000000	          0.00000000	          0.00000000	         36.48735702	          0.00000000	
          0.27417185	          0.00000000	          0.00000000	          0.00000000	          0.00000000	          0.00000000	          0.00000000	       -289.24763833	       3931.92423530	        406.28288832	          0.29403027	          0.00000000	         -0.01676662	          0.00000000	          0.00000000	          0.00000000	          0.00000000	         20.45296254	          0.00000000	
          0.27589037	          0.00000000	          0.00000000	          0.00000000	          0.00000000	          0.00000000	          0.00000000	       -257.48045128	       3869.44352376	        569.07021146	          0.29861557	          0.00000000	         -0.01633144	          0.00000000	          0.00000000	          0.00000000	          0.00000000	          8.86868787	          0.00000000	
          0.27664084	          0.00000000	          0.00000000	          0.00000000	          0.00000000	          0.00000000	          0.00000000	       -240.71358623	       3880.02138010	        642.87965680	          0.30009643	          0.00000000	         -0.01600082	          0.00000000	          0.00000000	          0.00000000	          0.00000000	          3.75419108	          0.00000000	
          0.27901204	          0.00000000	          0.00000000	          0.00000000	          0.00000000	          0.00000000	          0.00000000	       -164.19967596	       4002.57369044	        825.29476909	          0.30323457	          0.00000000	         -0.01457685	          0.00000000	          0.00000000	          0.00000000	          0.00000000	        -10.09201017	          0.00000000	
          0.28073055	          0.00000000	          0.00000000	          0.00000000	          0.00000000	          0.00000000	          0.00000000	        -90.64956053	       4084.08669155	        839.90562091	          0.30544693	          0.00000000	         -0.01342304	          0.00000000	          0.00000000	          0.00000000	          0.00000000	        -15.28680111	          0.00000000	
          0.28148102	          0.00000000	          0.00000000	          0.00000000	          0.00000000	          0.00000000	          0.00000000	        -61.27372995	       4091.14549483	        808.79149291	          0.30680917	          0.00000000	         -0.01287359	          0.00000000	          0.00000000	          0.00000000	          0.00000000	        -15.02002621	          0.00000000	
          0.28385222	          0.00000000	          0.00000000	          0.00000000	          0.00000000	          0.00000000	          0.00000000	          9.79633830	       3908.73636832	        602.59438191	          0.31433382	          0.00000000	         -0.01073551	          0.00000000	          0.00000000	          0.00000000	          0.00000000	         -7.05235263	          0.00000000	
